<?xml version="1.0" encoding="UTF-8" standalone="no"?>
<!-- Created with Inkscape (http://www.inkscape.org/) -->

<svg
   width="210mm"
   height="297mm"
   viewBox="0 0 210 297"
   version="1.1"
   id="svg1"
   inkscape:version="1.3.2 (091e20ef0f, 2023-11-25)"
   sodipodi:docname="transformation_matrix_transposition.svg"
   xmlns:inkscape="http://www.inkscape.org/namespaces/inkscape"
   xmlns:sodipodi="http://sodipodi.sourceforge.net/DTD/sodipodi-0.dtd"
   xmlns="http://www.w3.org/2000/svg"
   xmlns:svg="http://www.w3.org/2000/svg">
  <sodipodi:namedview
     id="namedview1"
     pagecolor="#ffffff"
     bordercolor="#000000"
     borderopacity="0.25"
     inkscape:showpageshadow="2"
     inkscape:pageopacity="0.0"
     inkscape:pagecheckerboard="0"
     inkscape:deskcolor="#d1d1d1"
     inkscape:document-units="mm"
     inkscape:zoom="0.7484516"
     inkscape:cx="487.00544"
     inkscape:cy="845.74607"
     inkscape:window-width="1920"
     inkscape:window-height="1080"
     inkscape:window-x="0"
     inkscape:window-y="-37"
     inkscape:window-maximized="1"
     inkscape:current-layer="layer1" />
  <defs
     id="defs1">
    <inkscape:path-effect
       effect="powerstroke"
       id="path-effect16"
       is_visible="true"
       lpeversion="1.3"
       scale_width="1"
       interpolator_type="CentripetalCatmullRom"
       interpolator_beta="0.75"
       start_linecap_type="round"
       end_linecap_type="round"
       offset_points="86.32184,0.93367557"
       linejoin_type="spiro"
       miter_limit="4"
       not_jump="true"
       sort_points="true"
       message="&lt;b&gt;Ctrl + click&lt;/b&gt; on existing node and move it" />
    <inkscape:path-effect
       effect="simplify"
       id="path-effect15"
       is_visible="true"
       lpeversion="1.3"
       threshold="0.012"
       steps="1"
       smooth_angles="0"
       helper_size="0"
       simplify_individual_paths="false"
       simplify_just_coalesce="false"
       step="1" />
  </defs>
  <g
     inkscape:label="Layer 1"
     inkscape:groupmode="layer"
     id="layer1">
    <path
       style="fill:#000000;stroke-width:0.264583"
       id="path1"
       d="m 11.202394,42.549058 c -0.650419,0.406662 -1.2924166,0.82936 -1.8824869,1.321718 -0.1908011,0.159205 -0.3734793,0.327901 -0.560219,0.49185 -0.8669157,0.852617 -1.7002215,1.767507 -2.3010524,2.833275 -0.437752,0.776496 -0.5327843,1.113856 -0.8531465,1.944939 -0.3511593,0.983832 -0.5365123,1.989399 -0.5779882,3.031783 -0.027204,0.683689 0.010597,0.972582 0.058567,1.629802 0,0 7.673e-4,2.64e-4 7.673e-4,2.64e-4 v 0 C 5.038839,53.145456 5.0010268,52.856582 5.0282189,52.172875 5.0696756,51.130493 5.255039,50.124939 5.6061847,49.141107 5.9265711,48.309966 6.0215488,47.972739 6.4593408,47.196192 7.0601815,46.130437 7.8934719,45.21554 8.7604157,44.362959 8.9471607,44.199016 9.1298452,44.030325 9.3206508,43.871126 9.9107446,43.378773 10.552753,42.956069 11.20322,42.549455 Z" />
    <path
       style="fill:#000000;stroke-width:0.264583"
       id="path3"
       d="m 8.9385742,31.211758 c -0.760232,-0.171839 -1.5407923,-0.230352 -2.315718,-0.297511 -0.6289079,-0.05176 -1.2602172,-0.08116 -1.8912868,-0.07143 -0.4831305,0.03422 -0.7711631,0.194697 -0.9637395,0.659125 -0.074891,0.18061 -0.096321,0.437957 -0.1213872,0.629317 -0.04581,0.49299 -0.032908,0.988481 -0.039196,1.482783 -0.00581,0.456864 -0.01215,0.494469 -0.035122,0.975648 -0.06702,1.275522 -0.1366197,2.550904 -0.2067528,3.826262 -0.045151,0.962993 -0.099978,1.926484 -0.092915,2.890964 0.00485,0.661927 0.018714,0.796999 0.052062,1.446197 0.080338,1.217181 0.1538187,2.434889 0.2354258,3.65198 0.07779,1.043673 0.087889,2.0907 0.099727,3.136715 -0.00705,1.010425 0.069368,2.018517 0.1206545,3.026986 0.021704,0.608915 0.059881,1.216965 0.091826,1.825377 0.017674,0.321543 0.022929,0.643548 0.025612,0.965507 -0.00846,0.20524 0.0083,0.408053 0.032024,0.611544 0.036214,0.510874 0.011351,1.023787 -0.00161,1.535118 -0.026075,0.581673 -0.00672,1.165262 -0.037914,1.746631 -0.021714,0.224375 -0.037692,0.449046 -0.046764,0.67428 -0.0075,0.217408 -0.00667,0.434991 -0.00685,0.652494 -0.015632,0.284499 -0.036491,0.568648 -0.05008,0.853263 -0.00477,0.260993 -0.017084,0.521015 -0.045381,0.78059 -0.057254,0.397838 -0.070896,0.799769 -0.082978,1.200967 0.00146,0.645224 0.026189,1.290561 0.035229,1.935983 -0.00246,1.531898 0.040765,3.062864 0.09754,4.593518 0.033626,1.334469 0.1174594,2.666728 0.2026626,3.998646 0.077293,1.181639 0.2253023,2.357265 0.3526391,3.534248 0.057242,0.434102 0.1092459,0.869342 0.1910527,1.299742 0.035506,0.186806 0.070022,0.383564 0.1688669,0.550923 0.058841,0.09963 0.143501,0.181549 0.2152515,0.272323 0.1168259,0.06712 0.2276326,0.146018 0.3504776,0.201358 0.1453965,0.0655 0.4513607,0.128921 0.6077284,0.165598 0.2717913,0.06375 0.5416139,0.132839 0.8114498,0.204356 0.422261,0.107082 0.8512892,0.184166 1.2845081,0.228695 0.049573,0.0013 0.099146,0.0028 0.1487197,0.0042 0,0 0.016227,-0.999868 0.016227,-0.999868 v 0 c -0.021273,2.59e-4 -0.042547,5.29e-4 -0.063821,7.93e-4 -0.3810228,-0.0382 -0.7580307,-0.107399 -1.1295089,-0.200461 -0.2803506,-0.07426 -0.5606563,-0.14677 -0.8432226,-0.212222 -0.08017,-0.01857 -0.1607941,-0.03518 -0.2407769,-0.05454 -0.059131,-0.01431 -0.1159536,-0.04053 -0.1765027,-0.04646 -0.014327,-0.0013 -0.02309,0.0172 -0.034637,0.0258 -0.00977,0.0035 -0.021947,0.01797 -0.029297,0.01064 -0.068828,-0.06875 -0.089203,-0.264713 -0.1002247,-0.3223 C 5.4442378,78.19628 5.3955228,77.782207 5.3404802,77.369422 5.2147166,76.206983 5.0683605,75.045896 4.9916025,73.878894 4.9069695,72.555895 4.8235715,71.232563 4.7902927,69.907021 4.7337957,68.384043 4.6907977,66.86076 4.6933417,65.336543 c -0.00886,-0.630751 -0.032202,-1.26147 -0.03558,-1.89198 0.011221,-0.375833 0.023278,-0.752351 0.077795,-1.124953 0.0292,-0.279032 0.045573,-0.558501 0.049882,-0.83902 0.014251,-0.300183 0.038119,-0.599773 0.051211,-0.900009 1.648e-4,-0.20446 -7.144e-4,-0.408993 0.00605,-0.613368 0.00878,-0.221475 0.026083,-0.442193 0.046245,-0.662905 0.029247,-0.590225 0.015105,-1.182116 0.038911,-1.772621 0.014145,-0.558467 0.041144,-1.118992 -0.00485,-1.676641 -0.019702,-0.167904 -0.03465,-0.333973 -0.025282,-0.503713 -0.00283,-0.336656 -0.00849,-0.673362 -0.026952,-1.009587 C 4.8388407,53.733882 4.8006862,53.12638 4.7790306,52.51801 4.7283851,51.522693 4.6525923,50.527754 4.6596035,49.530502 4.6475332,48.465927 4.6368123,47.40035 4.5576968,46.338159 4.4762991,45.126187 4.4034125,43.91357 4.3231818,42.701516 c -0.032335,-0.62162 -0.045821,-0.753067 -0.050754,-1.387498 -0.00738,-0.948526 0.047309,-1.896073 0.091431,-2.843141 0.070261,-1.277866 0.1400175,-2.555754 0.2071381,-3.833786 0.024,-0.509154 0.030087,-0.538091 0.03624,-1.020041 0.0058,-0.454424 -0.00607,-0.909814 0.031672,-1.363289 0.00804,-0.07144 0.014965,-0.143021 0.024106,-0.214331 0.00585,-0.04561 0.026852,-0.09078 0.020847,-0.136369 -2.593e-4,-0.0019 -0.066855,-0.01299 -0.071468,-0.01765 -0.00578,-0.0058 -0.00925,-0.02214 -0.0014,-0.02461 0.043986,-0.01384 0.09143,-0.01206 0.1371457,-0.01807 0.596722,-0.01069 1.1937651,0.02016 1.7884595,0.06784 0.7304826,0.06319 1.4667211,0.116155 2.1835419,0.27709 z" />
    <path
       style="fill:#000000;stroke-width:0.264583"
       id="path4"
       d="m 77.082728,31.255102 c 0.819058,0.10196 1.633522,0.23477 2.453109,0.332531 1.251002,0.127735 2.50889,0.153773 3.764142,0.214267 0.04653,0.006 0.311467,0.01027 0.385762,0.08901 0.01006,0.01066 -0.02296,0.01969 -0.02908,0.033 -0.0081,0.01759 -0.0131,0.03744 -0.01214,0.05676 0.0027,0.05439 0.01794,0.107516 0.02297,0.16174 0.0097,0.104833 0.01413,0.21009 0.02119,0.315135 0.0042,0.152789 0.01241,0.305517 0.01267,0.458361 0.0011,0.674431 -0.02228,1.348677 -0.03221,2.023033 -0.03445,2.3406 -0.07161,4.680778 -0.118821,7.021185 -0.122669,6.110906 -0.361789,12.218421 -0.559269,18.327113 -0.107804,3.962141 -0.180742,7.925136 -0.35588,11.885091 -0.08948,1.823678 -0.214818,3.646554 -0.207613,5.473229 0.0049,0.459534 0.02894,0.918512 0.04031,1.377876 -0.0082,0.258664 0.03444,0.533453 -0.03498,0.786976 -7.93e-4,-0.0079 -0.0016,-0.01577 -0.0024,-0.02365 0.06284,-0.07694 0.18968,-0.131485 0.188508,-0.230815 -7.94e-4,-0.06508 -0.126876,-0.0311 -0.19167,-0.03729 -0.203734,-0.01945 -0.408421,-0.0272 -0.612708,-0.03954 -0.993069,-0.05998 -0.728766,-0.04379 -1.781302,-0.08342 -1.433079,-0.02986 -2.867242,-0.04522 -4.298464,0.04291 -0.364114,0.02437 -0.727432,0.05884 -1.091617,0.08209 0,0 0.0639,0.997956 0.0639,0.997956 v 0 c 0.363427,-0.02334 0.726033,-0.05716 1.089361,-0.08195 1.398178,-0.08662 2.799295,-0.06987 4.1993,-0.04171 1.038831,0.0389 0.769634,0.02265 1.754595,0.08206 0.210984,0.01273 0.421527,0.03423 0.632796,0.04063 0.176044,0.0053 0.360781,0.04877 0.528341,-0.0055 0.395632,-0.128077 0.39391,-0.222959 0.498573,-0.489196 0.06727,-0.33737 0.06949,-0.681379 0.05753,-1.02439 -0.01127,-0.452461 -0.03454,-0.904544 -0.04001,-1.357156 -0.0077,-1.810576 0.119147,-3.617338 0.206648,-5.424966 0.175141,-3.963911 0.248697,-7.930841 0.356335,-11.896945 0.197602,-6.112737 0.436872,-12.2243 0.559583,-18.339257 0.04722,-2.341431 0.08442,-4.682631 0.11888,-7.024254 0.01016,-0.689745 0.03463,-1.379397 0.03193,-2.069213 -7.94e-4,-0.170024 -0.01032,-0.339892 -0.01551,-0.509839 -0.0366,-0.404509 -0.05034,-0.841629 -0.332155,-1.170541 -0.263432,-0.307459 -0.626216,-0.374166 -1.005144,-0.403389 -1.23189,-0.05935 -2.466332,-0.08492 -3.694189,-0.208433 -0.82368,-0.09763 -1.641917,-0.233098 -2.465218,-0.333894 z" />
    <path
       style="fill:none;stroke:#000000;stroke-width:0.264583;stroke-opacity:1"
       d="m 16.623827,67.050877 c -2.069291,-1.395066 -4.56137,2.241277 -5.488093,3.553185 -0.457627,0.647835 -1.8779204,3.655483 -1.2410932,4.460745 1.1100182,1.403609 5.1135532,0.586126 6.2582642,-0.0752 2.267835,-1.31018 3.905167,-5.509204 1.657734,-7.518577 -0.247831,-0.221578 -0.557976,-0.127281 -0.82485,-0.229574 -0.127323,-0.0488 -0.225606,-0.190579 -0.361962,-0.190579 -0.779559,0 -3.765799,1.524251 -4.542678,1.912686"
       id="path16" />
    <path
       style="fill:none;stroke:#000000;stroke-width:0.264583;stroke-opacity:1"
       d="m 30.538084,68.691402 c -0.981033,0.563261 -3.13231,1.311563 -3.347445,2.853023 -0.111456,0.798589 0.134355,1.718207 0.49045,2.429132 1.371047,2.73722 1.880939,1.687462 4.057621,0.597085 1.590765,-0.796869 2.396223,-1.040881 3.600728,-2.502125 1.868455,-2.266712 1.700474,-4.3732 -1.616485,-4.809352 -0.604804,-0.07953 -1.814997,-0.147736 -2.368228,-0.08725 -1.375828,0.150418 -2.648728,0.476364 -3.744439,1.331198 -0.278907,0.217596 -0.450733,0.575228 -0.630872,0.755367"
       id="path17" />
    <path
       style="fill:none;stroke:#000000;stroke-width:0.264583;stroke-opacity:1"
       d="m 47.478854,68.703517 c -0.762002,0.01228 -1.557991,-0.188534 -2.28601,0.03683 -0.975448,0.301955 -1.86245,3.746042 -1.977819,4.450836 -0.06835,0.417558 -0.0016,1.160312 0.405151,1.471898 1.503296,1.151443 6.76864,0.831946 8.169892,-0.117054 0.358309,-0.242665 0.669983,-0.913905 0.865412,-1.29839 0.353623,-0.695706 -0.06284,-1.662435 -0.321363,-2.309495 -0.354203,-0.886539 0.601385,0.646153 -0.958644,-1.591214 -1.415629,-2.030267 -2.244484,-2.120517 -4.483401,-1.290471 -0.476316,0.176588 -1.315924,0.256569 -1.643481,0.576389"
       id="path18" />
    <path
       style="fill:none;stroke:#000000;stroke-width:0.264583;stroke-opacity:1"
       d="m 67.039434,72.727533 c 2.481257,-2.737053 0.795504,-0.990795 3.088256,-3.149893 0.788493,-0.742524 1.609164,-1.421882 2.434174,-2.121141 0.588333,-0.498655 1.260793,-1.275236 1.308651,-1.229365 0.03571,0.03422 -0.157541,1.046287 -0.22165,1.40005 -0.472413,2.606866 -1.341892,5.279028 -1.341892,7.930946"
       id="path19" />
    <path
       style="fill:none;stroke:#000000;stroke-width:0.264583;stroke-opacity:1"
       d="m 68.764948,33.847606 c -2.113404,0.232248 -4.111204,-0.62774 -6.166247,-0.80744 -0.150497,-0.01315 -1.173604,-0.240665 -1.224856,-0.151503 -0.06556,0.114051 -0.211122,0.825204 -0.267269,0.983276 -0.987928,2.781213 -1.263095,5.861357 -1.050018,8.802405 0.0092,0.126661 0.0616,0.246406 0.0924,0.369609 0.03656,0.569741 0.08999,1.138645 0.109691,1.709217 0.113935,3.299251 0.0042,6.602259 0.141896,9.895474 0.02392,0.571746 0.220999,1.11075 0.287354,1.669733 0.02566,0.216289 0,0.435618 0,0.653428 0,0.181295 0.103317,3.981828 0.335965,4.103899 0.209391,0.109863 0.654127,-0.03944 0.859372,-0.06225 0.486839,-0.05409 0.957889,0.02511 1.447684,-0.06626 0.916995,-0.171063 1.794237,-0.501147 2.734632,-0.501147"
       id="path20" />
    <path
       style="fill:none;stroke:#000000;stroke-width:0.264583;stroke-opacity:1"
       d="m 78.42201,33.339566 c 0.127214,0.233098 2.586982,-0.52401 2.930448,-0.208267 0.147568,0.13566 -0.588849,3.854948 -0.636463,4.154821 -0.440786,2.776061 -1.022927,5.594347 -1.207971,8.403055 -0.05359,0.813417 0.03969,1.631326 0,2.445539 -0.140103,2.873587 -0.54165,5.856258 -1.04598,8.684802 -0.248952,1.396257 -0.309555,2.874465 -0.378873,4.287708 -0.0078,0.157956 0.0895,1.104048 0,1.238541 -0.01286,0.01934 -3.243241,0.407022 -3.297322,0.407022"
       id="path21" />
    <path
       style="fill:none;stroke:#000000;stroke-width:0.264583;stroke-opacity:1"
       d="m 70.650657,35.33132 c -0.368106,0.876761 -0.745082,1.749851 -1.104318,2.630287 -0.312039,0.764757 -1.187018,2.703628 -0.57531,3.62119 0.329452,0.494178 2.483366,0.122738 2.495172,-0.0131 0.0059,-0.06811 -0.09211,-0.10583 -0.113728,-0.170693"
       id="path22" />
    <path
       style="fill:none;stroke:#000000;stroke-width:0.264583;stroke-opacity:1"
       d="m 66.432392,37.429061 c 1.773809,-0.357227 3.440999,0.532882 5.171506,0.532882 0.169498,0 1.379599,-0.143661 1.506829,-0.06735"
       id="path23" />
    <path
       style="fill:none;stroke:#000000;stroke-width:0.264583;stroke-opacity:1"
       d="m 72.989436,40.681391 c 1.017903,0.487746 0.961472,2.256285 1.967222,2.75916"
       id="path24" />
    <path
       style="fill:none;stroke:#000000;stroke-width:0.264583;stroke-opacity:1"
       d="m 75.137975,40.942175 c -0.666404,0.419155 -1.345306,0.819065 -1.99921,1.257461 -0.279821,0.1876 -0.471771,0.9984 -0.789028,0.9984"
       id="path25" />
    <path
       style="fill:none;stroke:#000000;stroke-width:0.264583;stroke-opacity:1"
       d="m 69.009598,44.311625 c 0.0011,0.458007 -0.136343,0.88573 -0.274685,1.319451 -0.310267,0.972719 -0.778063,1.976008 -0.778063,3.018972 0,0.343789 -0.0737,0.501351 0.135591,0.765596 0.174797,0.220689 2.713678,-0.238244 2.713678,-0.628441"
       id="path26" />
    <path
       style="fill:none;stroke:#000000;stroke-width:0.264583;stroke-opacity:1"
       d="m 66.760737,46.050229 c 1.648394,-0.50954 3.211719,0.213293 4.828397,0.213293"
       id="path27" />
    <path
       style="fill:none;stroke:#000000;stroke-width:0.264583;stroke-opacity:1"
       d="m 73.185659,47.952186 c -1.012907,2.406324 -0.136403,2.333447 1.393243,1.097645 0.212275,-0.171498 0.538737,-0.585925 0.56782,-0.879988 0.004,-0.04048 -0.03638,0.07276 -0.05457,0.109135 -0.08271,0.165407 -0.173713,0.326861 -0.249005,0.495768 -0.132019,0.29617 -0.166571,0.63753 -0.269108,0.945134 -0.281736,0.845201 -1.072803,1.750634 -2.02361,1.592165 -0.253997,-0.04233 -0.850262,-0.328943 -0.434932,-0.621668 1.085085,-0.764759 3.176325,-0.98443 4.476964,-1.314741 0.318513,-0.08089 0.669655,0.07944 0.837837,-0.244311"
       id="path28" />
    <path
       style="fill:none;stroke:#000000;stroke-width:0.264583;stroke-opacity:1"
       d="m 68.494031,52.873412 c -0.451528,1.879317 -0.522634,2.571263 -1.02075,3.984125 -0.667062,1.892064 0.239192,1.709925 1.748346,1.206865"
       id="path29" />
    <path
       style="fill:none;stroke:#000000;stroke-width:0.264583;stroke-opacity:1"
       d="m 66.738033,55.113393 c 1.512475,-0.322525 2.957534,0.50736 4.416314,0.50736"
       id="path30" />
    <path
       style="fill:none;stroke:#000000;stroke-width:0.264583;stroke-opacity:1"
       d="m 72.049134,57.466182 c 0.420364,0.143518 2.951358,-0.213879 3.168904,0.656304 0.0114,0.04565 0.108564,0.05501 0.06225,0.124492 -0.313765,0.470646 -2.520765,0.731263 -3.166245,0.869487 -0.359416,0.07697 -0.799153,0.268753 -0.696953,0.373578 0.324213,0.332534 4.637503,0.293471 4.897914,0.517951"
       id="path31" />
    <path
       style="fill:none;stroke:#000000;stroke-width:0.264583;stroke-opacity:1"
       d="m 12.256606,31.561069 c -0.274653,0.06046 -0.546248,0.13703 -0.823958,0.181379 -0.361093,0.05766 -3.3286008,0.169871 -3.3814389,0.222711 -0.013224,0.01323 0,2.143072 0,2.398395 0,5.903679 -0.059687,-0.690748 0.1162896,3.551634 0.1591906,3.83772 0.019902,7.753628 -0.106145,11.589938 -0.03789,1.153184 -0.3557113,2.241762 -0.4494101,3.378927 -0.1890972,2.294951 0.027318,4.630251 -0.1327618,6.927813 -0.037765,0.542028 -0.6392299,3.188571 -0.4837459,3.424248 0.019357,0.02934 0.4307213,0 0.4579964,0 0.617974,0 2.7454937,-0.300175 3.3293287,-0.0083"
       id="path32" />
    <path
       style="fill:none;stroke:#000000;stroke-width:0.264583;stroke-opacity:1"
       d="m 51.486191,33.03439 c 2.341523,0.18442 4.654875,0.742466 7.006243,0.742466 0.105992,0 1.532231,0.0168 1.55743,0.08784 0.238858,0.67328 -0.194701,2.197262 -0.283366,2.738398 -0.09201,0.561525 -0.141261,1.129223 -0.211894,1.693836 -0.106032,0.56538 -0.218035,1.129671 -0.318101,1.696135 -0.127187,0.720006 -0.288991,1.435773 -0.363635,2.163107 -0.1905,1.856279 0.09944,3.695213 -0.269692,5.547182 -0.526148,2.639748 -1.756397,5.045771 -2.181339,7.713314 -0.143582,0.901327 -0.234148,4.026484 -0.07913,5.129834 0.100163,0.712949 0.188015,1.393751 0.188015,2.132851 0,0.137694 0.09882,0.775396 0,0.87912 -0.737642,0.774216 -2.485107,0.612037 -3.577849,0.612037 -0.324451,0 -0.763868,-0.08491 -1.058164,0.06224"
       id="path33" />
    <path
       style="fill:none;stroke:#000000;stroke-width:0.264583;stroke-opacity:1"
       d="m 11.221683,38.199827 c 1.492336,-0.06603 3.035614,-0.158544 4.522629,0.0064 0.290115,0.03218 0.659953,-0.0071 0.869882,0.05705"
       id="path34" />
    <path
       style="fill:none;stroke:#000000;stroke-width:0.264583;stroke-opacity:1"
       d="m 27.126792,39.245434 c 1.760141,-0.1748 3.525914,-0.137166 5.290397,-0.137166 0.06984,0 0.900882,-0.102983 1.003863,0 0.21063,0.210627 0.700964,0.123341 1.05509,0.123341"
       id="path35" />
    <path
       style="fill:none;stroke:#000000;stroke-width:0.264583;stroke-opacity:1"
       d="m 46.500862,39.348873 c 2.024686,-0.01437 4.056374,-0.02658 6.074978,0.119213 0.383403,0.02769 1.925622,0.282257 2.183556,0.02434"
       id="path36" />
    <path
       style="fill:none;stroke:#000000;stroke-width:0.264583;stroke-opacity:1"
       d="m 11.512723,47.537613 c 1.643702,0.296121 3.396762,-0.253288 5.067184,-0.0826 0.267784,0.02736 0.500079,0.13304 0.779279,0.13304"
       id="path37" />
    <path
       style="fill:none;stroke:#000000;stroke-width:0.264583;stroke-opacity:1"
       d="m 24.49882,48.665749 c 3.272121,-0.131991 6.548449,-0.09213 9.822948,-0.09213"
       id="path38" />
    <path
       style="fill:none;stroke:#000000;stroke-width:0.264583;stroke-opacity:1"
       d="m 42.804942,49.278526 c 2.506911,0.283591 4.240009,0.67105 6.531856,0.570574 0.537776,-0.02357 0.836607,-0.208036 1.314146,-0.208036"
       id="path39" />
    <path
       style="fill:none;stroke:#000000;stroke-width:0.264583;stroke-opacity:1"
       d="m 13.356133,58.911685 c 1.997143,-0.797618 3.982528,-0.589375 6.021583,-0.589375"
       id="path40" />
    <path
       style="fill:none;stroke:#000000;stroke-width:0.264583;stroke-opacity:1"
       d="m 25.454086,58.414419 c 4.379859,-1.629148 8.268811,-0.495453 12.555077,-0.495453"
       id="path41" />
    <path
       style="fill:none;stroke:#000000;stroke-width:0.264583;stroke-opacity:1"
       d="m 45.306501,59.609264 c 3.120413,-0.773726 7.169925,-0.0729 9.994132,0.163841"
       id="path42" />
    <path
       style="fill:none;stroke:#000000;stroke-width:0.264583;stroke-opacity:1"
       d="m 87.144869,51.206473 c 5.583905,0.02942 11.079613,1.115309 16.678781,0.90863 1.64258,-0.06063 2.99318,-0.709872 4.5699,-0.709872"
       id="path43" />
    <path
       style="fill:none;stroke:#000000;stroke-width:0.264583;stroke-opacity:1"
       d="m 87.306107,56.350275 c 8.027923,0.319302 15.619393,0.407263 23.328843,-1.134081"
       id="path44" />
    <path
       style="fill:none;stroke:#000000;stroke-width:0.264583;stroke-opacity:1"
       d="m 130.40388,28.006976 c -1.581,-0.05891 -11.74468,-0.852889 -13.08296,0.369086 -0.35511,0.324252 0.37843,2.353292 0.44243,2.817498 0.78376,5.684898 -0.4959,11.534296 -1.20872,17.131876 -1.40381,11.023857 -1.46681,21.583221 -1.81884,32.64281 -0.10275,3.227951 -1.16221,6.826223 -0.1325,10.041342 0.18548,0.579125 1.07539,-0.569471 1.59569,-0.884227 0.89534,-0.541634 2.06235,-0.616013 2.97037,-0.952384 1.96207,-0.726836 10.6443,-1.433626 12.0704,-0.0075"
       id="path45" />
    <path
       style="fill:none;stroke:#000000;stroke-width:0.264583;stroke-opacity:1"
       d="m 169.37231,29.113289 c 1.5929,-0.06594 3.18476,-0.166288 4.77872,-0.197813 3.59817,-0.07117 7.50131,0.318151 11.1242,0 0.93591,-0.08219 6.47564,-0.941716 6.91281,-0.74372 0.14229,0.06444 0,2.423822 0,3.389641 0,7.205501 -1.08133,14.188379 -2.41886,21.300648 -1.76944,9.408901 -1.78899,7.267208 -3.43385,16.623229 -0.49476,2.814179 -0.88498,5.646002 -1.28103,8.47576 -0.17416,1.244354 -0.002,4.537567 -0.60827,6.040742 -0.55532,1.376772 -10.65221,0.223332 -11.66354,-0.787998"
       id="path46" />
    <path
       style="fill:none;stroke:#000000;stroke-width:0.264583;stroke-opacity:1"
       d="m 136.22311,71.868153 c -3.1261,-0.644466 -6.38078,-1.430662 -9.459,-0.129939 -1.00058,0.422804 -2.72995,1.71182 -3.43503,2.394379 -0.35583,0.344474 1.05926,5.074438 1.37611,5.484053 0.15302,0.197818 0.50965,0.08998 0.71177,0.237262 1.3348,0.972585 2.67433,2.004065 4.6976,1.327105 1.51298,-0.506225 5.58077,-3.460665 6.47671,-4.78768 1.26605,-1.875216 -1.39453,-5.340218 -3.11931,-5.771415 -0.83896,-0.209738 -1.88975,0.472562 -2.66873,0.667319"
       id="path47" />
    <path
       style="fill:none;stroke:#000000;stroke-width:0.264583;stroke-opacity:1"
       d="m 163.34652,77.629635 c 6.11201,-4.13735 0.20055,-0.0043 4.19417,-3.070024 2.03777,-1.564301 4.47233,-2.473467 6.52007,-4.01026 0.25389,-0.190537 0.35768,-0.640241 0.67338,-0.673365 0.13693,-0.01437 -1.71453,3.991904 -1.80943,4.213744 -1.56325,3.654129 -0.0417,0.342376 -1.26947,4.04713 -0.38716,1.168173 -1.44124,2.298205 -1.64216,3.503927 -0.0352,0.211318 0.1944,1.561119 0,1.768968 -0.0927,0.09913 -0.27147,0 -0.40721,0"
       id="path48" />
    <path
       style="fill:none;stroke:#000000;stroke-width:0.264583;stroke-opacity:1"
       d="m 174.19208,38.339881 c -1.00906,1.788639 -2.01812,3.577278 -3.02719,5.365917 -0.36047,0.81344 -0.6581,1.657744 -1.08142,2.440326 -0.75169,1.389653 -3.60496,4.467119 -2.89959,6.583228 0.92632,2.778984 9.89903,1.228973 11.04776,-1.014222"
       id="path49" />
    <path
       style="fill:none;stroke:#000000;stroke-width:0.264583;stroke-opacity:1"
       d="m 164.98438,44.260947 c 4.74101,-1.179838 9.19496,1.474427 13.85761,1.474427"
       id="path50" />
    <path
       style="fill:none;stroke:#000000;stroke-width:0.264583;stroke-opacity:1"
       d="m 135.94684,36.124776 c -1.75304,3.208462 -3.09405,6.457741 -4.3766,9.842471 -0.37565,0.991375 -3.03627,5.303441 -3.08302,5.390788 -0.60497,1.130413 -1.98117,2.573057 -1.98117,3.866919 0,1.117288 -0.11327,-1.276453 0,-2.152205 0.20891,-1.615107 0.86236,-3.080385 1.72443,-4.441653 0.64745,-1.022374 1.54105,-1.931916 2.08752,-3.019467 2.13845,-4.255783 1.53774,-8.374687 7.38325,-8.374687 1.41367,0 2.21088,-0.0011 3.09649,1.327327 0.39791,0.596863 0.0916,1.121304 0.22112,1.768967 0.24872,1.243597 0.55823,0.867791 -0.91823,2.015652 -3.56091,2.768399 -6.68519,2.073002 -10.70577,2.073002 -0.41405,0 0.75741,0.370583 1.05019,0.663363 0.8412,0.841196 1.62125,1.71567 2.37864,2.624596 1.01531,1.218435 1.55848,2.893234 2.46218,4.192487 0.68385,0.983178 1.6247,2.343986 2.38509,3.294477 0.24196,0.302443 0.92592,0.48368 1.10284,0.660596"
       id="path51" />
    <path
       style="fill:#000000;stroke-width:0.264583"
       id="path1-5"
       d="m 33.248073,180.41579 c 0.40666,-0.65042 0.82936,-1.29242 1.32172,-1.88249 0.1592,-0.1908 0.3279,-0.37348 0.49185,-0.56022 0.85262,-0.86691 1.76751,-1.70022 2.83327,-2.30105 0.7765,-0.43775 1.11386,-0.53278 1.94494,-0.85315 0.98383,-0.35116 1.9894,-0.53651 3.03179,-0.57798 0.68368,-0.0272 0.97258,0.0106 1.6298,0.0586 0,0 2.6e-4,7.6e-4 2.6e-4,7.6e-4 v 0 c -0.65723,-0.048 -0.94611,-0.0858 -1.62981,-0.0586 -1.04238,0.0415 -2.04794,0.22682 -3.03177,0.57797 -0.83114,0.32038 -1.16837,0.41536 -1.94492,0.85315 -1.06575,0.60084 -1.98065,1.43414 -2.83323,2.30108 -0.16394,0.18674 -0.33263,0.36943 -0.49183,0.56023 -0.49235,0.5901 -0.91506,1.23211 -1.32167,1.88257 z" />
    <path
       style="fill:#000000;stroke-width:0.345256"
       id="path3-3"
       d="m 75.823816,170.52311 c 0.76023,-0.29261 1.54079,-0.39224 2.31572,-0.5066 0.62891,-0.0882 1.26022,-0.13826 1.89129,-0.12157 0.48313,0.0582 0.77116,0.33153 0.96374,1.12233 0.0749,0.30754 0.0963,0.74575 0.12138,1.07159 0.0458,0.83946 0.0329,1.68317 0.0392,2.52485 0.006,0.77795 0.0121,0.84197 0.0351,1.66132 0.067,2.17192 0.13662,4.34363 0.20676,6.51527 0.0451,1.63978 0.1,3.28039 0.0929,4.92268 -0.005,1.12712 -0.0187,1.35712 -0.0521,2.46256 -0.0803,2.07259 -0.15382,4.14606 -0.23543,6.21852 -0.0778,1.77714 -0.0879,3.56 -0.0997,5.34112 0.007,1.72054 -0.0694,3.43709 -0.12065,5.1543 -0.0217,1.03683 -0.0599,2.07221 -0.0918,3.1082 -0.0177,0.54753 -0.0229,1.09582 -0.0256,1.64405 0.008,0.34948 -0.008,0.69482 -0.032,1.04131 -0.0362,0.86992 -0.0113,1.74329 0.002,2.61397 0.0261,0.99048 0.007,1.98418 0.0379,2.97413 0.0217,0.38207 0.0377,0.76463 0.0468,1.14815 0.007,0.3702 0.007,0.74069 0.007,1.11106 0.0156,0.48444 0.0365,0.96829 0.0501,1.45291 0.005,0.44441 0.0171,0.88719 0.0454,1.32918 0.0573,0.67743 0.0709,1.36183 0.083,2.04498 -0.002,1.09867 -0.0262,2.19754 -0.0352,3.29655 0.002,2.60849 -0.0408,5.21537 -0.0975,7.82175 -0.0336,2.27231 -0.11746,4.54085 -0.20267,6.8088 -0.0773,2.01207 -0.2253,4.01391 -0.35264,6.01804 -0.0572,0.73918 -0.10924,1.4803 -0.19105,2.21317 -0.0355,0.3181 -0.07,0.65314 -0.16887,0.93812 -0.0588,0.16959 -0.1435,0.30914 -0.21525,0.4637 -0.11682,0.11425 -0.22763,0.24864 -0.35048,0.34287 -0.14539,0.11153 -0.45136,0.21952 -0.60772,0.28198 -0.27179,0.10847 -0.54162,0.2262 -0.81145,0.34796 -0.42226,0.18233 -0.85129,0.3136 -1.28451,0.38943 -0.0496,0.002 -0.0991,0.005 -0.14872,0.007 0,0 -0.0162,-1.70256 -0.0162,-1.70256 v 0 c 0.0213,4.4e-4 0.0425,9e-4 0.0638,0.001 0.38102,-0.065 0.75803,-0.18288 1.12951,-0.34134 0.28035,-0.12652 0.56065,-0.24992 0.84322,-0.36137 0.0802,-0.0317 0.16079,-0.0599 0.24078,-0.0928 0.0591,-0.0243 0.11595,-0.069 0.1765,-0.0792 0.0143,-0.002 0.0231,0.0293 0.0346,0.0439 0.01,0.007 0.022,0.0307 0.0293,0.0181 0.0688,-0.11715 0.0892,-0.45074 0.10022,-0.5488 0.0783,-0.69688 0.12705,-1.40195 0.1821,-2.10484 0.12576,-1.97936 0.27212,-3.95644 0.34888,-5.94359 0.0846,-2.25277 0.16803,-4.50611 0.2013,-6.76323 0.0565,-2.59328 0.0995,-5.18711 0.0969,-7.7825 0.009,-1.07404 0.0322,-2.148 0.0356,-3.22162 -0.0112,-0.63997 -0.0233,-1.2811 -0.0778,-1.91556 -0.0292,-0.47513 -0.0456,-0.951 -0.0499,-1.42867 -0.0143,-0.51114 -0.0381,-1.02127 -0.0512,-1.53251 -1.6e-4,-0.34815 7.2e-4,-0.69642 -0.006,-1.04442 -0.009,-0.37713 -0.0261,-0.75297 -0.0462,-1.12879 -0.0292,-1.00501 -0.0151,-2.01289 -0.0389,-3.01838 -0.0141,-0.95095 -0.0411,-1.90539 0.005,-2.85495 0.0197,-0.28591 0.0346,-0.56867 0.0253,-0.8577 0.003,-0.57326 0.008,-1.1466 0.0269,-1.71911 0.0319,-1.03507 0.0701,-2.06951 0.0917,-3.10543 0.0506,-1.69479 0.12644,-3.38895 0.11943,-5.08707 0.0121,-1.81272 0.0228,-3.62717 0.10191,-5.43585 0.0814,-2.06371 0.15428,-4.12854 0.23451,-6.19239 0.0323,-1.05848 0.0458,-1.28231 0.0507,-2.36261 0.007,-1.61513 -0.0473,-3.22858 -0.0914,-4.84123 -0.0703,-2.17593 -0.14001,-4.35188 -0.20713,-6.5281 -0.024,-0.86697 -0.0301,-0.91625 -0.0362,-1.7369 -0.006,-0.77378 0.006,-1.54921 -0.0317,-2.32138 -0.008,-0.12158 -0.015,-0.24354 -0.0241,-0.36496 -0.006,-0.0777 -0.0268,-0.15461 -0.0208,-0.23221 2.5e-4,-0.003 0.0669,-0.0221 0.0715,-0.0301 0.006,-0.0102 0.009,-0.0376 10e-4,-0.0419 -0.044,-0.0235 -0.0914,-0.0206 -0.13715,-0.0308 -0.59672,-0.0182 -1.19377,0.0344 -1.78846,0.11545 -0.73048,0.10762 -1.46672,0.1978 -2.18354,0.47182 z" />
    <path
       style="fill:#000000;stroke-width:0.338546"
       id="path4-5"
       d="m 17.4861,174.36995 c -0.81906,0.16694 -1.63353,0.38438 -2.45311,0.54445 -1.251,0.20913 -2.50889,0.25176 -3.76414,0.3508 -0.0465,0.01 -0.311471,0.0169 -0.385771,0.14571 -0.0101,0.0175 0.023,0.0323 0.0291,0.054 0.008,0.0288 0.0131,0.0612 0.0121,0.093 -0.003,0.0891 -0.0179,0.17604 -0.023,0.26481 -0.01,0.17165 -0.0141,0.34397 -0.0212,0.51596 -0.004,0.25016 -0.0124,0.5002 -0.0127,0.75045 -10e-4,1.1042 0.0223,2.20811 0.0322,3.31219 0.0345,3.83212 0.0716,7.66356 0.11882,11.49538 0.12267,10.00501 0.361791,20.00449 0.559271,30.00589 0.10781,6.48698 0.18075,12.97537 0.35588,19.45876 0.0895,2.9858 0.21482,5.97028 0.20762,8.96099 -0.005,0.75237 -0.0289,1.50383 -0.0403,2.25593 0.008,0.42348 -0.0344,0.87338 0.035,1.28846 7.9e-4,-0.0131 0.002,-0.0259 0.002,-0.0388 -0.0628,-0.1259 -0.18968,-0.21526 -0.18851,-0.37789 7.9e-4,-0.10658 0.12687,-0.0509 0.19167,-0.0611 0.20373,-0.0319 0.40842,-0.0445 0.61271,-0.0647 0.99307,-0.0982 0.72876,-0.0717 1.7813,-0.13654 1.43308,-0.049 2.86724,-0.074 4.29846,0.0702 0.36412,0.0399 0.72743,0.0963 1.09162,0.13442 0,0 -0.0639,1.63388 -0.0639,1.63388 v 0 c -0.36343,-0.0381 -0.72603,-0.0937 -1.08936,-0.13409 -1.39818,-0.14178 -2.7993,-0.11444 -4.1993,-0.0683 -1.03883,0.0637 -0.76964,0.037 -1.7546,0.13442 -0.21098,0.0208 -0.42152,0.056 -0.63279,0.0665 -0.17605,0.008 -0.36078,0.0799 -0.52834,-0.008 -0.39564,-0.20969 -0.39391,-0.36504 -0.498581,-0.80093 -0.0673,-0.55235 -0.0695,-1.11558 -0.0575,-1.67717 0.0113,-0.74079 0.0345,-1.48097 0.04,-2.222 0.008,-2.96435 -0.11914,-5.92246 -0.20664,-8.88198 -0.17515,-6.48988 -0.2487,-12.9847 -0.35634,-19.47816 C 10.38017,211.94846 10.1409,201.94237 10.01819,191.9307 c -0.0472,-3.83348 -0.0844,-7.66659 -0.11888,-11.50039 -0.0102,-1.12928 -0.0346,-2.25841 -0.0319,-3.38779 7.9e-4,-0.27838 0.0103,-0.5565 0.0155,-0.83473 0.0366,-0.66228 0.0503,-1.37795 0.33215,-1.91646 0.26343,-0.50339 0.626219,-0.61261 1.005149,-0.66045 1.231891,-0.0973 2.466331,-0.139 3.694191,-0.34126 0.82368,-0.1598 1.64191,-0.38163 2.46521,-0.54666 z" />
    <path
       style="fill:none;stroke:#000000;stroke-width:0.264583;stroke-opacity:1"
       d="m 63.562605,186.08967 c -1.39507,-2.06929 2.24128,-4.56137 3.55318,-5.48809 0.64784,-0.45763 3.65549,-1.87792 4.46075,-1.24109 1.40361,1.11001 0.58613,5.11355 -0.0752,6.25826 -1.31018,2.26784 -5.5092,3.90517 -7.51858,1.65773 -0.22158,-0.24783 -0.12728,-0.55797 -0.22957,-0.82485 -0.0488,-0.12732 -0.19058,-0.2256 -0.19058,-0.36196 0,-0.77956 1.52425,-3.7658 1.91269,-4.54268"
       id="path16-6" />
    <path
       style="fill:none;stroke:#000000;stroke-width:0.264583;stroke-opacity:1"
       d="m 65.203125,200.00393 c 0.56327,-0.98103 1.31157,-3.13231 2.85303,-3.34745 0.79859,-0.11145 1.7182,0.13436 2.42913,0.49045 2.73722,1.37105 1.68746,1.88094 0.59708,4.05763 -0.79686,1.59076 -1.04088,2.39622 -2.50212,3.60072 -2.26671,1.86846 -4.3732,1.70048 -4.80935,-1.61648 -0.0795,-0.60481 -0.14774,-1.815 -0.0872,-2.36823 0.15042,-1.37583 0.47636,-2.64873 1.3312,-3.74444 0.21759,-0.27891 0.57522,-0.45073 0.75536,-0.63087"
       id="path17-2" />
    <path
       style="fill:none;stroke:#000000;stroke-width:0.264583;stroke-opacity:1"
       d="m 65.215245,216.9447 c 0.0123,-0.762 -0.18853,-1.55799 0.0368,-2.28601 0.30195,-0.97545 3.74604,-1.86245 4.45084,-1.97782 0.41755,-0.0683 1.16031,-0.002 1.47189,0.40515 1.15145,1.5033 0.83195,6.76864 -0.11705,8.16989 -0.24267,0.35831 -0.91391,0.66999 -1.29839,0.86542 -0.69571,0.35362 -1.66244,-0.0628 -2.3095,-0.32137 -0.88653,-0.3542 0.64616,0.60139 -1.59121,-0.95864 -2.03027,-1.41563 -2.12052,-2.24449 -1.29047,-4.4834 0.17659,-0.47632 0.25657,-1.31593 0.57639,-1.64348"
       id="path18-9" />
    <path
       style="fill:none;stroke:#000000;stroke-width:0.264583;stroke-opacity:1"
       d="m 63.902354,241.84219 c 2.48126,-2.73706 0.7955,-0.9908 3.08826,-3.1499 0.78849,-0.74252 1.60916,-1.42188 2.43417,-2.12114 0.58833,-0.49865 1.26079,-1.27523 1.30865,-1.22936 0.0357,0.0342 -0.15754,1.04628 -0.22165,1.40005 -0.47241,2.60686 -1.34189,5.27902 -1.34189,7.93094"
       id="path19-1" />
    <path
       style="fill:none;stroke:#000000;stroke-width:0.264583;stroke-opacity:1"
       d="m 29.961816,235.93257 c -0.3681,0.87676 -0.74508,1.74985 -1.10432,2.63029 -0.31203,0.76476 -1.18701,2.70363 -0.57531,3.62119 0.32946,0.49418 2.48337,0.12274 2.49518,-0.0131 0.006,-0.0681 -0.0921,-0.10583 -0.11373,-0.17069"
       id="path22-0" />
    <path
       style="fill:none;stroke:#000000;stroke-width:0.264583;stroke-opacity:1"
       d="m 25.743556,238.03031 c 1.77381,-0.35722 3.441,0.53289 5.1715,0.53289 0.1695,0 1.3796,-0.14367 1.50683,-0.0673"
       id="path23-9" />
    <path
       style="fill:none;stroke:#000000;stroke-width:0.264583;stroke-opacity:1"
       d="m 30.9927,242.54924 c 1.0179,0.48775 0.96147,2.25629 1.96722,2.75916"
       id="path24-3" />
    <path
       style="fill:none;stroke:#000000;stroke-width:0.264583;stroke-opacity:1"
       d="m 33.14124,242.81003 c -0.6664,0.41915 -1.34531,0.81906 -1.99921,1.25746 -0.27982,0.1876 -0.47177,0.9984 -0.78903,0.9984"
       id="path25-6" />
    <path
       style="fill:none;stroke:#000000;stroke-width:0.264583;stroke-opacity:1"
       d="m 36.735533,235.87674 c 0.001,0.458 -0.13634,0.88573 -0.27468,1.31945 -0.31027,0.97272 -0.77806,1.97601 -0.77806,3.01897 0,0.34379 -0.0737,0.50135 0.13559,0.7656 0.17479,0.22069 2.71367,-0.23825 2.71367,-0.62844"
       id="path26-0" />
    <path
       style="fill:none;stroke:#000000;stroke-width:0.264583;stroke-opacity:1"
       d="m 34.486673,237.61534 c 1.6484,-0.50954 3.21172,0.21329 4.8284,0.21329"
       id="path27-6" />
    <path
       style="fill:none;stroke:#000000;stroke-width:0.264583;stroke-opacity:1"
       d="m 39.419583,241.03177 c -1.0129,2.40632 -0.1364,2.33345 1.39325,1.09764 0.21227,-0.17149 0.53873,-0.58592 0.56782,-0.87998 0.004,-0.0405 -0.0364,0.0728 -0.0546,0.10913 -0.0827,0.16541 -0.17372,0.32686 -0.24901,0.49577 -0.13202,0.29617 -0.16657,0.63753 -0.26911,0.94513 -0.28173,0.8452 -1.0728,1.75064 -2.02361,1.59217 -0.25399,-0.0423 -0.85026,-0.32895 -0.43493,-0.62167 1.08509,-0.76476 3.17633,-0.98443 4.47697,-1.31474 0.31851,-0.0809 0.66965,0.0794 0.83783,-0.24431"
       id="path28-2" />
    <path
       style="fill:none;stroke:#000000;stroke-width:0.264583;stroke-opacity:1"
       d="m 47.476655,235.61073 c -0.45153,1.87932 -0.52264,2.57127 -1.02075,3.98413 -0.66707,1.89206 0.23919,1.70992 1.74834,1.20686"
       id="path29-6" />
    <path
       style="fill:none;stroke:#000000;stroke-width:0.264583;stroke-opacity:1"
       d="m 45.28594,238.00359 c 1.51247,-0.32253 2.95753,0.50736 4.41631,0.50736"
       id="path30-1" />
    <path
       style="fill:none;stroke:#000000;stroke-width:0.264583;stroke-opacity:1"
       d="m 47.89069,241.87969 c 0.42036,0.14352 2.95136,-0.21387 3.1689,0.65631 0.0114,0.0456 0.10857,0.055 0.0623,0.12449 -0.31376,0.47065 -2.52076,0.73126 -3.16624,0.86949 -0.35942,0.077 -0.79915,0.26875 -0.69695,0.37358 0.32421,0.33253 4.6375,0.29347 4.89791,0.51795"
       id="path31-8" />
    <path
       style="fill:none;stroke:#000000;stroke-width:0.264583;stroke-opacity:1"
       d="m 28.898843,180.43508 c -0.066,1.49233 -0.15854,3.03561 0.006,4.52263 0.0322,0.29011 -0.007,0.65995 0.0571,0.86988"
       id="path34-2" />
    <path
       style="fill:none;stroke:#000000;stroke-width:0.264583;stroke-opacity:1"
       d="m 29.944453,196.34019 c -0.1748,1.76014 -0.13717,3.52591 -0.13717,5.29039 0,0.0698 -0.10298,0.90089 0,1.00387 0.21063,0.21063 0.12334,0.70096 0.12334,1.05509"
       id="path35-0" />
    <path
       style="fill:none;stroke:#000000;stroke-width:0.264583;stroke-opacity:1"
       d="m 30.047893,215.71426 c -0.0144,2.02468 -0.0266,4.05637 0.11921,6.07498 0.0277,0.3834 0.28226,1.92562 0.0243,2.18355"
       id="path36-2" />
    <path
       style="fill:none;stroke:#000000;stroke-width:0.264583;stroke-opacity:1"
       d="m 38.236633,180.72612 c 0.29612,1.6437 -0.25329,3.39676 -0.0826,5.06718 0.0274,0.26779 0.13304,0.50008 0.13304,0.77928"
       id="path37-3" />
    <path
       style="fill:none;stroke:#000000;stroke-width:0.264583;stroke-opacity:1"
       d="m 39.364763,193.71222 c -0.13199,3.27212 -0.0921,6.54844 -0.0921,9.82294"
       id="path38-7" />
    <path
       style="fill:none;stroke:#000000;stroke-width:0.264583;stroke-opacity:1"
       d="m 39.977543,212.01834 c 0.28359,2.50691 0.67105,4.24001 0.57057,6.53185 -0.0236,0.53778 -0.20803,0.83661 -0.20803,1.31415"
       id="path39-5" />
    <path
       style="fill:none;stroke:#000000;stroke-width:0.264583;stroke-opacity:1"
       d="m 49.610703,182.56953 c -0.79762,1.99714 -0.58938,3.98253 -0.58938,6.02158"
       id="path40-9" />
    <path
       style="fill:none;stroke:#000000;stroke-width:0.264583;stroke-opacity:1"
       d="m 49.113433,194.66748 c -1.62915,4.37986 -0.49545,8.26881 -0.49545,12.55508"
       id="path41-2" />
    <path
       style="fill:none;stroke:#000000;stroke-width:0.264583;stroke-opacity:1"
       d="m 50.308283,214.5199 c -0.77373,3.12041 -0.0729,7.16992 0.16384,9.99413"
       id="path42-2" />
    <path
       style="fill:none;stroke:#000000;stroke-width:0.264583;stroke-opacity:1"
       d="m 83.087623,206.21158 c 5.58391,0.0294 11.079616,1.1153 16.678786,0.90863 1.642571,-0.0606 2.993171,-0.70988 4.569891,-0.70988"
       id="path43-8" />
    <path
       style="fill:none;stroke:#000000;stroke-width:0.264583;stroke-opacity:1"
       d="m 83.248863,211.35538 c 8.027926,0.3193 15.619396,0.40726 23.328847,-1.13408"
       id="path44-9" />
    <path
       style="fill:none;stroke:#000000;stroke-width:0.264583;stroke-opacity:1"
       d="m 174.51269,181.48483 c 1.581,-0.0589 11.74468,-0.85289 13.08296,0.36908 0.35511,0.32426 -0.37843,2.3533 -0.44243,2.8175 -0.78376,5.6849 0.4959,11.5343 1.20872,17.13188 1.40381,11.02386 1.46681,21.58322 1.81884,32.64281 0.10275,3.22795 1.16221,6.82622 0.1325,10.04134 -0.18548,0.57913 -1.07539,-0.56947 -1.59569,-0.88422 -0.89534,-0.54164 -2.06235,-0.61602 -2.97037,-0.95239 -1.96207,-0.72683 -10.6443,-1.43363 -12.07041,-0.008"
       id="path45-7" />
    <path
       style="fill:none;stroke:#000000;stroke-width:0.287015;stroke-opacity:1"
       d="m 131.47828,180.83361 c -1.59177,-0.0776 -3.1825,-0.19582 -4.77533,-0.23294 -3.59562,-0.0839 -7.49599,0.37465 -11.11631,0 -0.93525,-0.0968 -6.47105,-1.10896 -6.90791,-0.8758 -0.14218,0.0758 0,2.85427 0,3.99161 0,8.48515 1.08057,16.70813 2.41715,25.08349 1.76818,11.07985 1.78772,8.55781 3.43141,19.57539 0.49441,3.31395 0.88436,6.64868 1.28011,9.98099 0.17404,1.46533 0.002,5.34339 0.60785,7.11353 0.55492,1.62127 10.64465,0.26299 11.65527,-0.92795"
       id="path46-3" />
    <path
       style="fill:none;stroke:#000000;stroke-width:0.264583;stroke-opacity:1"
       d="m 159.95281,200.11348 c -0.64447,-3.1261 -1.43067,-6.38078 -0.12994,-9.459 0.4228,-1.00058 1.71182,-2.72995 2.39438,-3.43503 0.34447,-0.35583 5.07443,1.05926 5.48405,1.37611 0.19782,0.15302 0.09,0.50965 0.23726,0.71177 0.97259,1.3348 2.00407,2.67433 1.32711,4.6976 -0.50623,1.51298 -3.46067,5.58077 -4.78768,6.47671 -1.87522,1.26605 -5.34022,-1.39453 -5.77142,-3.11931 -0.20974,-0.83896 0.47256,-1.88975 0.66732,-2.66873"
       id="path47-6" />
    <path
       style="fill:none;stroke:#000000;stroke-width:0.264583;stroke-opacity:1"
       d="m 159.0234,233.92778 c 6.11201,-4.13735 0.20055,-0.004 4.19417,-3.07003 2.03777,-1.5643 4.47233,-2.47346 6.52007,-4.01026 0.25389,-0.19053 0.35768,-0.64024 0.67338,-0.67336 0.13693,-0.0144 -1.71453,3.9919 -1.80943,4.21374 -1.56325,3.65413 -0.0417,0.34238 -1.26947,4.04713 -0.38716,1.16818 -1.44124,2.29821 -1.64216,3.50393 -0.0352,0.21132 0.1944,1.56112 0,1.76897 -0.0927,0.0991 -0.27147,0 -0.40721,0"
       id="path48-1" />
    <path
       style="fill:none;stroke:#000000;stroke-width:0.264583;stroke-opacity:1"
       d="m 136.17324,222.69514 c -1.00906,1.78864 -2.01812,3.57728 -3.02718,5.36592 -0.36047,0.81344 -0.6581,1.65774 -1.08143,2.44033 -0.75169,1.38965 -3.60496,4.46712 -2.89958,6.58322 0.92632,2.77899 9.89903,1.22898 11.04776,-1.01422"
       id="path49-2" />
    <path
       style="fill:none;stroke:#000000;stroke-width:0.264583;stroke-opacity:1"
       d="m 126.05784,229.14788 c 4.74101,1.17984 9.19496,-1.47443 13.85761,-1.47443"
       id="path50-9" />
    <path
       style="fill:none;stroke:#000000;stroke-width:0.264583;stroke-opacity:1"
       d="m 136.19587,187.85077 c -1.75304,3.20846 -3.09405,6.45774 -4.37659,9.84247 -0.37566,0.99137 -3.03627,5.30344 -3.08303,5.39079 -0.60497,1.13041 -1.98117,2.57305 -1.98117,3.86692 0,1.11728 -0.11327,-1.27646 0,-2.15221 0.20891,-1.61511 0.86236,-3.08038 1.72443,-4.44165 0.64745,-1.02238 1.54106,-1.93192 2.08753,-3.01947 2.13845,-4.25578 1.53774,-8.37469 7.38325,-8.37469 1.41367,0 2.21088,-0.001 3.09648,1.32733 0.39791,0.59686 0.0916,1.12131 0.22113,1.76897 0.24871,1.2436 0.55823,0.86779 -0.91823,2.01565 -3.56091,2.7684 -6.68519,2.073 -10.70577,2.073 -0.41405,0 0.75741,0.37059 1.05018,0.66337 0.8412,0.84119 1.62126,1.71567 2.37864,2.62459 1.01531,1.21844 1.55848,2.89324 2.46218,4.19249 0.68385,0.98318 1.6247,2.34398 2.38509,3.29448 0.24196,0.30244 0.92592,0.48368 1.10284,0.66059"
       id="path51-3" />
    <path
       style="fill:none;stroke:#000000;stroke-width:0.264583;stroke-opacity:1"
       d="m 26.609075,233.9042 c -1.443672,0.0267 -2.610863,-0.66084 -4.089378,-0.66084 -0.1938,0 -0.413572,-0.0969 -0.581401,0 -0.01894,0.0109 0.01956,0.0391 0.02934,0.0587 0.04969,0.0994 0.05394,0.10097 0.09398,0.25261 0.248997,0.9431 0.05244,0.32754 0.305415,1.64208 0.245817,1.27733 0.508732,2.55132 0.763835,3.82683 0.227293,1.13647 0.445405,2.16107 0.581492,3.29513 0.06982,0.58187 0.163046,1.09668 0.129221,1.67733 -0.04835,0.8299 -0.215392,1.65126 -0.316159,2.45704 -0.01066,0.0853 -0.04388,0.41656 0.06284,0.4623 0.538828,0.23093 1.245641,-0.13462 1.755681,-0.24315 0.985646,-0.20975 1.98561,-0.28002 2.989178,-0.28002"
       id="path52" />
    <path
       style="fill:none;stroke:#000000;stroke-width:0.264583;stroke-opacity:1"
       d="m 50.636168,232.60204 c 1.055359,-0.10498 2.05654,0.23527 3.090773,0.3583 0.0087,0.001 0.850553,0.0656 0.87599,0.0898 0.03561,0.0339 -0.07452,0.75197 -0.08872,0.95304 -0.04866,0.68872 0.03421,1.38575 0,2.07569 -0.0631,1.27254 -0.07582,2.54589 -0.124778,3.81889 -0.08089,2.10318 -0.176924,4.21058 -0.129222,6.31784 0.01775,0.78459 0.118321,1.58841 0.05977,2.37559 -0.01548,0.20794 -0.559197,0.14884 -0.626792,0.14884 -0.84595,0 -1.690516,-0.0421 -2.531534,-0.0421"
       id="path53" />
    <path
       style="fill:none;stroke:#000000;stroke-width:0.264583;stroke-opacity:1"
       d="m 23.825555,177.87396 c -1.860548,-0.17956 -3.732909,-0.43076 -5.599759,-0.59138 -0.241905,-0.0208 -1.440143,-0.30803 -1.655607,-0.0926 -1.136207,1.1362 -0.413837,3.91166 -0.280069,5.24831 0.06223,0.62185 0.0718,1.2479 0.116681,1.87125 0.251812,3.49749 0.355066,6.99048 0.566666,10.48928 0.110366,1.8249 0.582354,3.60966 0.68189,5.43485 0.127919,2.34567 -0.05274,4.73082 0,7.07723 0.08467,3.76708 0.283792,7.53403 0.283792,11.30249 0,2.82522 0,5.65044 0,8.47567 0,0.52558 -0.07801,2.06761 -0.069,2.07284 0.237395,0.1378 1.933423,-0.20943 2.151569,-0.22173 1.356148,-0.0764 2.972347,0.50616 4.209046,0.12568"
       id="path54" />
    <path
       style="fill:none;stroke:#000000;stroke-width:0.264583;stroke-opacity:1"
       d="m 50.646619,178.52808 c 1.612591,0.11755 3.146515,-0.003 4.705181,-0.36639 0.312068,-0.0728 0.770704,-0.10441 1.10567,-0.18815 0.0703,-0.0176 0.193018,-0.14026 0.206147,-0.069 0.148812,0.8079 -0.167367,1.69196 -0.190111,2.50638 -0.03588,1.28473 0.05836,2.5718 0,3.85571 -0.128288,2.82237 -0.303853,5.64977 -0.424095,8.47542 -0.201179,4.72758 0.02675,9.45615 -0.140296,14.18118 -0.140202,3.96577 -0.384161,7.93932 -0.384161,11.91417 0,2.62783 0.07815,5.2713 0.07815,7.88922 0,0.53944 0,1.07888 0,1.61831 0,0.005 0.0057,0.16366 0,0.16541 -1.307592,0.39644 -3.454697,-0.44704 -4.968463,-0.44704 -0.899088,0 -1.793536,0.64952 -2.709246,0.64952"
       id="path55" />
    <path
       style="fill:none;stroke:#000000;stroke-width:0.264583;stroke-opacity:1"
       d="m 67.661055,176.61114 c -1.292111,0.37534 -5.871448,-0.60685 -6.971972,0.28816 -0.153135,0.12454 0.141502,1.13788 0.144082,1.14562 0.692136,2.07643 0.267988,3.98369 0.267988,6.08767 0,2.74207 -1.147373,5.44168 -1.784937,8.0987 -0.191516,0.79814 0.08219,1.77227 0,2.59384 -0.118618,1.18579 -0.639003,2.28556 -0.790932,3.46207 -0.154853,1.19915 0.119099,2.45283 0,3.65668 -0.498542,5.0392 -0.318535,10.11745 -0.318535,15.18704 0,1.06899 -0.150672,2.25941 0,3.31386 0.17422,1.21927 0.554334,2.41442 0.727438,3.62616 0.06595,0.46163 -0.228696,2.9226 0.144081,3.31386 0.236239,0.24795 2.233658,-0.50708 2.581092,-0.57657 1.276546,-0.25531 2.73788,-0.06 3.31184,-1.20791"
       id="path57" />
    <path
       style="fill:none;stroke:#000000;stroke-width:0.264583;stroke-opacity:1"
       d="m 70.298131,225.11114 c 0.475469,0.18822 0.929896,0.44228 1.426405,0.56465 0.537385,0.13246 3.125756,0.28936 3.733422,0 0.211344,-0.10063 0,-0.46816 0,-0.70224 0,-1.56673 -0.03494,1.05889 0.153368,-1.04573 0.206346,-2.30619 0.209098,-4.62048 0.376542,-6.93163 0.259096,-3.57619 -0.01783,-7.21027 0.307192,-10.78384 0.202163,-2.22279 0.288406,-4.38544 0.288406,-6.629 0,-3.68041 -0.445423,-8.52089 0.432245,-12.03156 0.362294,-1.44919 0.04697,-3.26073 0.288284,-4.76989 0.142434,-0.89077 1.236258,-5.20943 0.480153,-5.96554 -0.609161,-0.60916 -3.053196,-0.0446 -3.712776,-0.0446"
       id="path58" />
    <path
       style="fill:none;stroke:#000000;stroke-width:0.264583;stroke-opacity:1"
       d="m 12.555005,65.564125 c -1.108752,-0.04832 -2.228942,0.07408 -3.3359706,0 -0.6838013,-0.04576 -2.2776751,-0.939432 -2.8886073,-0.328501 -0.083572,0.08357 0.1172977,0.21641 0.1172977,0.3346 0,0.716922 0.1179164,1.49652 0.2746598,2.188821 0.2590297,1.144077 0.7578894,2.214067 0.7985008,3.406494 0.057964,1.70193 -0.2264037,3.968102 0,5.661319 0.036493,0.27292 0.2060625,0.552024 0.2723356,0.817115 0.040858,0.163433 -0.1799868,0.880197 -0.1338397,0.932048 0.033906,0.03809 3.4494677,-0.279083 4.5335567,-0.279083"
       id="path59" />
    <path
       style="fill:none;stroke:#000000;stroke-width:0.264583;stroke-opacity:1"
       d="m 50.703694,66.419816 c 1.328922,-0.07852 2.664576,-0.144351 3.974848,-0.324958 0.08514,-0.01175 0.937131,-0.07221 0.937131,-0.115697 0,-0.120393 0,0.240789 0,0.361183 0,0.813133 0,1.626266 0,2.4394 0,1.613225 -0.07762,3.178331 -0.193742,4.783587 -0.04086,0.564888 0.02648,1.107488 -0.06698,1.668089 -0.130939,0.785429 -0.133839,1.640978 -0.133839,2.438435 0,0.07414 0.05866,0.558233 -0.04691,0.579744 -1.386006,0.282424 -3.03309,-0.490397 -4.361865,-0.708816 -1.102259,-0.181187 -2.251675,-0.338804 -3.37635,-0.338804"
       id="path60" />
    <path
       style="fill:#000000;stroke:#000000;stroke-width:0.201867;stroke-opacity:1;fill-opacity:1"
       d="m 96.750451,107.22434 11.849909,-0.083 -0.52561,31.82798 9.32934,-0.63362 -17.837325,24.12516 -17.491213,-22.24865 14.193761,-0.1873 z"
       id="path61" />
    <text
       xml:space="preserve"
       style="font-size:7.76111111px;fill:#000000;fill-opacity:1;stroke:#000000;stroke-width:0.264583;stroke-opacity:1"
       x="120.91743"
       y="128.87689"
       id="text67"><tspan
         sodipodi:role="line"
         id="tspan67"
         style="stroke-width:0.264583;font-size:7.76111111px"
         x="120.91743"
         y="128.87689">TRANSPOSITION</tspan></text>
    <path
       style="fill:#000000;fill-opacity:1;stroke:#000000;stroke-width:0.264583;stroke-opacity:1"
       d="m 141.65679,184.96759 c 0.84534,0.0712 5.9374,-0.19325 6.48162,0.35096"
       id="path67" />
    <path
       style="fill:#000000;fill-opacity:1;stroke:#000000;stroke-width:0.264583;stroke-opacity:1"
       d="m 144.53424,184.89991 c 0.0449,2.63542 0.23496,5.08046 0.23496,7.72449"
       id="path68" />
    <path
       style="fill:#000000;fill-opacity:1;stroke:#000000;stroke-width:0.264583;stroke-opacity:1"
       d="m 139.57302,218.68349 c 2.76064,7.9e-4 5.69666,-0.50975 8.45668,-0.12505 0.75908,0.1058 1.63468,0.24252 2.3922,0.24252"
       id="path70" />
    <path
       style="fill:#000000;fill-opacity:1;stroke:#000000;stroke-width:0.264583;stroke-opacity:1"
       d="m 145.0269,218.50169 c 0.14464,2.74007 0.19134,5.50991 0.19134,8.27599"
       id="path71" />
    <path
       style="fill:#000000;fill-opacity:1;stroke:#000000;stroke-width:0.264583;stroke-opacity:1"
       d="m 172.62256,184.49192 c 2.54153,-0.48075 5.1855,0.004 7.70146,0.004"
       id="path72" />
    <path
       style="fill:#000000;fill-opacity:1;stroke:#000000;stroke-width:0.264583;stroke-opacity:1"
       d="m 176.24766,184.6053 c 0.0828,2.4909 -0.82174,4.82967 -0.82174,7.20702"
       id="path73" />
  </g>
</svg>
